<svg version="1.1" id="Layer_1" xmlns="http://www.w3.org/2000/svg" xmlns:xlink="http://www.w3.org/1999/xlink" x="0px" y="0px"
	 width="100%" viewBox="0 0 397 120" enable-background="new 0 0 397 120" xml:space="preserve">
<path fill="#121212" opacity="1.000000" stroke="none" 
	d="
M1.000000,109.000000 
	C1.000000,76.979103 1.000000,44.958210 1.000500,12.095568 
	C3.667333,7.835880 6.333667,4.417940 9.000000,1.000000 
	C135.354233,1.000000 261.708466,1.000000 388.799377,1.204119 
	C394.968811,4.589627 397.065247,9.369478 397.041290,15.598553 
	C396.929077,44.756126 396.992767,73.914368 396.990570,103.072372 
	C396.989685,115.172073 392.166504,119.993835 380.057526,119.993973 
	C259.426697,119.995308 138.795822,119.952065 18.165134,120.085831 
	C9.643459,120.095276 3.724427,117.344231 1.000000,109.000000 
M344.668640,70.871407 
	C348.514374,76.303902 352.850800,81.463120 356.070312,87.244339 
	C359.412994,93.246773 364.021027,93.606308 369.658112,92.479660 
	C369.658112,70.792999 369.658112,49.363976 369.658112,27.723995 
	C365.891479,27.723995 362.331390,27.723995 358.099548,27.723995 
	C358.099548,42.242161 358.099548,56.500256 358.099548,71.897400 
	C347.835083,57.555286 338.389618,44.279861 328.819824,31.094677 
	C327.750244,29.621073 326.105682,27.897818 324.499176,27.622053 
	C321.318176,27.076017 317.977448,27.460800 313.723938,27.460800 
	C324.237976,42.247883 334.219879,56.286572 344.668640,70.871407 
M118.685913,28.112589 
	C115.014946,27.832067 111.343987,27.551546 107.660843,27.270094 
	C107.660843,49.541866 107.660843,70.975365 107.660843,92.556885 
	C122.897102,92.556885 137.910156,92.556885 152.976440,92.556885 
	C152.976440,88.949608 152.976440,85.660507 152.976440,81.904190 
	C141.512497,81.904190 130.273026,81.904190 118.854210,81.904190 
	C118.854210,63.960239 118.854210,46.485123 118.685913,28.112589 
M216.370941,92.850128 
	C218.640137,92.850128 220.909348,92.850128 223.271561,92.850128 
	C223.271561,89.025444 223.271561,85.769371 223.271561,82.070198 
	C211.790649,82.070198 200.556870,82.070198 188.934357,82.070198 
	C188.934357,63.712402 188.934357,45.797386 188.934357,27.700386 
	C185.101547,27.700386 181.668869,27.700386 178.153229,27.700386 
	C178.153229,49.471237 178.153229,71.013435 178.153229,92.850128 
	C190.793579,92.850128 203.099152,92.850128 216.370941,92.850128 
M73.725899,44.753540 
	C72.804298,42.273724 71.864281,39.800568 70.964279,37.312931 
	C67.081528,26.580782 67.085800,26.579237 55.344791,27.364244 
	C55.293152,27.685209 55.111229,28.053659 55.208431,28.320377 
	C62.765583,49.055920 70.315353,69.794373 78.008904,90.479340 
	C78.392128,91.509682 79.984962,92.634560 81.107681,92.741936 
	C84.303169,93.047562 87.546860,92.849220 91.240646,92.849220 
	C85.320702,76.606003 79.650749,61.048721 73.725899,44.753540 
M293.095428,68.303650 
	C289.348419,57.871532 285.604919,47.438137 281.853394,37.007641 
	C278.227173,26.925508 278.223419,26.923103 267.517029,27.175884 
	C267.086121,27.186060 266.659882,27.394747 265.646027,27.669725 
	C272.442688,46.189617 279.115082,64.560173 285.933685,82.876274 
	C289.734314,93.085464 289.844025,93.046967 300.792938,92.808197 
	C301.056915,92.802444 301.316467,92.591217 301.864685,92.349411 
	C299.022430,84.582169 296.180115,76.814667 293.095428,68.303650 
M45.275311,80.858704 
	C48.052570,74.120552 50.879669,67.402138 53.563072,60.626812 
	C54.071301,59.343586 54.519917,57.664665 54.119301,56.459843 
	C52.616547,51.940434 50.750530,47.541817 48.702236,42.279926 
	C41.683605,59.612030 35.030441,76.041641 28.281490,92.707787 
	C32.844509,92.707787 36.655048,92.707787 40.525089,92.707787 
	C42.052952,88.935127 43.539654,85.264107 45.275311,80.858704 
M258.140289,75.723625 
	C260.096985,70.968689 262.138550,66.245964 263.963287,61.440907 
	C264.581238,59.813663 265.297791,57.786755 264.849915,56.273888 
	C263.509125,51.745018 261.614868,47.380001 259.697754,42.320419 
	C252.708969,59.574272 246.046036,76.023666 239.229446,92.852402 
	C241.937531,92.852402 244.117844,92.608162 246.221329,92.906166 
	C249.945541,93.433769 251.968506,92.119591 253.116867,88.449745 
	C254.398544,84.353889 256.305695,80.453773 258.140289,75.723625 
M315.602051,45.710930 
	C314.853607,44.865700 314.105164,44.020473 313.064392,42.845108 
	C313.064392,59.852356 313.064392,76.123619 313.064392,92.512451 
	C316.859344,92.512451 320.410431,92.512451 324.171814,92.512451 
	C324.171814,85.533051 323.637054,78.824471 324.296631,72.235443 
	C325.297424,62.237259 323.180847,53.560776 315.602051,45.710930 
z"/>
<path fill="#FCFCFC" opacity="1.000000" stroke="none" 
	d="
M1.000000,109.479172 
	C3.724427,117.344231 9.643459,120.095276 18.165134,120.085831 
	C138.795822,119.952065 259.426697,119.995308 380.057526,119.993973 
	C392.166504,119.993835 396.989685,115.172073 396.990570,103.072372 
	C396.992767,73.914368 396.929077,44.756126 397.041290,15.598553 
	C397.065247,9.369478 394.968811,4.589627 389.268036,1.204119 
	C391.997437,1.000000 394.994904,1.000000 397.994263,1.000000 
	C397.996155,40.963329 397.996155,80.926659 397.996155,120.944992 
	C265.666687,120.944992 133.333344,120.944992 1.000004,120.946991 
	C1.000000,117.285439 1.000000,113.621895 1.000000,109.479172 
z"/>
<path fill="#E4E4E4" opacity="1.000000" stroke="none" 
	d="
M8.505266,1.000000 
	C6.333667,4.417940 3.667333,7.835880 1.000500,11.626909 
	C1.000000,8.430345 1.000000,4.860690 1.000000,1.000000 
	C3.332827,1.000000 5.671680,1.000000 8.505266,1.000000 
z"/>
<path fill="#F4F4F4" opacity="1.000000" stroke="none" 
	d="
M344.435211,70.598335 
	C334.219879,56.286572 324.237976,42.247883 313.723938,27.460800 
	C317.977448,27.460800 321.318176,27.076017 324.499176,27.622053 
	C326.105682,27.897818 327.750244,29.621073 328.819824,31.094677 
	C338.389618,44.279861 347.835083,57.555286 358.099548,71.897400 
	C358.099548,56.500256 358.099548,42.242161 358.099548,27.723995 
	C362.331390,27.723995 365.891479,27.723995 369.658112,27.723995 
	C369.658112,49.363976 369.658112,70.792999 369.658112,92.479660 
	C364.021027,93.606308 359.412994,93.246773 356.070312,87.244339 
	C352.850800,81.463120 348.514374,76.303902 344.435211,70.598335 
z"/>
<path fill="#F0F0F0" opacity="1.000000" stroke="none" 
	d="
M118.770065,28.561298 
	C118.854210,46.485123 118.854210,63.960239 118.854210,81.904190 
	C130.273026,81.904190 141.512497,81.904190 152.976440,81.904190 
	C152.976440,85.660507 152.976440,88.949608 152.976440,92.556885 
	C137.910156,92.556885 122.897102,92.556885 107.660843,92.556885 
	C107.660843,70.975365 107.660843,49.541866 107.660843,27.270094 
	C111.343987,27.551546 115.014946,27.832067 118.770065,28.561298 
z"/>
<path fill="#F8F8F8" opacity="1.000000" stroke="none" 
	d="
M215.887833,92.850128 
	C203.099152,92.850128 190.793579,92.850128 178.153229,92.850128 
	C178.153229,71.013435 178.153229,49.471237 178.153229,27.700386 
	C181.668869,27.700386 185.101547,27.700386 188.934357,27.700386 
	C188.934357,45.797386 188.934357,63.712402 188.934357,82.070198 
	C200.556870,82.070198 211.790649,82.070198 223.271561,82.070198 
	C223.271561,85.769371 223.271561,89.025444 223.271561,92.850128 
	C220.909348,92.850128 218.640137,92.850128 215.887833,92.850128 
z"/>
<path fill="#F9F9F9" opacity="1.000000" stroke="none" 
	d="
M73.853348,45.122490 
	C79.650749,61.048721 85.320702,76.606003 91.240646,92.849220 
	C87.546860,92.849220 84.303169,93.047562 81.107681,92.741936 
	C79.984962,92.634560 78.392128,91.509682 78.008904,90.479340 
	C70.315353,69.794373 62.765583,49.055920 55.208431,28.320377 
	C55.111229,28.053659 55.293152,27.685209 55.346962,27.364594 
	C67.085800,26.579237 67.081528,26.580782 70.964279,37.312931 
	C71.864281,39.800568 72.804298,42.273724 73.853348,45.122490 
z"/>
<path fill="#F8F8F8" opacity="1.000000" stroke="none" 
	d="
M293.216614,68.675415 
	C296.180115,76.814667 299.022430,84.582169 301.864685,92.349411 
	C301.316467,92.591217 301.056915,92.802444 300.792938,92.808197 
	C289.844025,93.046967 289.734314,93.085464 285.933685,82.876274 
	C279.115082,64.560173 272.442688,46.189617 265.646027,27.669725 
	C266.659882,27.394747 267.086121,27.186060 267.517029,27.175884 
	C278.223419,26.923103 278.227173,26.925508 281.853394,37.007641 
	C285.604919,47.438137 289.348419,57.871532 293.216614,68.675415 
z"/>
<path fill="#F8F8F8" opacity="1.000000" stroke="none" 
	d="
M45.150833,81.225891 
	C43.539654,85.264107 42.052952,88.935127 40.525089,92.707787 
	C36.655048,92.707787 32.844509,92.707787 28.281490,92.707787 
	C35.030441,76.041641 41.683605,59.612030 48.702236,42.279926 
	C50.750530,47.541817 52.616547,51.940434 54.119301,56.459843 
	C54.519917,57.664665 54.071301,59.343586 53.563072,60.626812 
	C50.879669,67.402138 48.052570,74.120552 45.150833,81.225891 
z"/>
<path fill="#F8F8F8" opacity="1.000000" stroke="none" 
	d="
M258.040466,76.096039 
	C256.305695,80.453773 254.398544,84.353889 253.116867,88.449745 
	C251.968506,92.119591 249.945541,93.433769 246.221329,92.906166 
	C244.117844,92.608162 241.937531,92.852402 239.229446,92.852402 
	C246.046036,76.023666 252.708969,59.574272 259.697754,42.320419 
	C261.614868,47.380001 263.509125,51.745018 264.849915,56.273888 
	C265.297791,57.786755 264.581238,59.813663 263.963287,61.440907 
	C262.138550,66.245964 260.096985,70.968689 258.040466,76.096039 
z"/>
<path fill="#FDFDFD" opacity="1.000000" stroke="none" 
	d="
M315.821594,46.012863 
	C323.180847,53.560776 325.297424,62.237259 324.296631,72.235443 
	C323.637054,78.824471 324.171814,85.533051 324.171814,92.512451 
	C320.410431,92.512451 316.859344,92.512451 313.064392,92.512451 
	C313.064392,76.123619 313.064392,59.852356 313.064392,42.845108 
	C314.105164,44.020473 314.853607,44.865700 315.821594,46.012863 
z"/>
</svg>