<svg version="1.1" id="Layer_1" xmlns="http://www.w3.org/2000/svg" xmlns:xlink="http://www.w3.org/1999/xlink" x="0px" y="0px"
	 width="100%" viewBox="0 0 383 112" enable-background="new 0 0 383 112" xml:space="preserve">
<path fill="#FEFEFE" opacity="1.000000" stroke="none" 
	d="
M252.000000,113.000000 
	C168.000015,113.000000 84.500038,113.000000 1.000045,113.000000 
	C1.000030,75.666695 1.000030,38.333389 1.000015,1.000065 
	C128.666611,1.000043 256.333221,1.000043 383.999878,1.000022 
	C383.999908,38.333263 383.999908,75.666527 383.999939,112.999893 
	C340.166656,113.000000 296.333344,113.000000 252.000000,113.000000 
M348.340424,65.462204 
	C339.151154,52.614887 329.887512,39.819599 320.834595,26.876913 
	C318.995361,24.247410 317.055389,23.032747 313.859619,23.387287 
	C311.469574,23.652445 309.026520,23.439608 305.905487,23.439608 
	C307.268036,25.498600 308.121399,26.874151 309.057983,28.190462 
	C322.071838,46.480118 335.339203,64.596817 347.970276,83.146843 
	C351.701477,88.626518 355.775208,89.877975 361.520691,88.413383 
	C361.520691,66.778320 361.520691,45.255569 361.520691,23.648808 
	C357.743378,23.648808 354.312561,23.648808 350.439636,23.648808 
	C350.439636,25.472237 350.439636,27.093145 350.439636,28.714054 
	C350.439575,40.196800 350.477234,51.679890 350.371399,63.161659 
	C350.362457,64.131271 349.392487,65.092041 348.340424,65.462204 
M108.562286,88.874161 
	C120.658524,88.874161 132.754761,88.874161 145.016327,88.874161 
	C145.016327,85.112595 145.016327,81.830482 145.016327,78.039375 
	C133.613617,78.039375 122.398468,78.039375 110.779648,78.039375 
	C110.779648,59.640511 110.779648,41.746193 110.779648,23.726357 
	C106.799301,23.726357 103.243958,23.726357 99.770554,23.726357 
	C99.770554,45.574398 99.770554,67.118668 99.770554,88.874146 
	C102.603668,88.874146 105.094551,88.874146 108.562286,88.874161 
M170.050552,88.171211 
	C185.075409,88.171211 200.100266,88.171211 215.292480,88.171211 
	C215.292480,85.069313 215.292480,81.818260 215.292480,78.102753 
	C203.827026,78.102753 192.599457,78.102753 180.975677,78.102753 
	C180.975677,59.733990 180.975677,41.827625 180.975677,23.693237 
	C177.140381,23.693237 173.713852,23.693237 169.848068,23.693237 
	C169.848068,45.024612 169.848068,66.129745 170.050552,88.171211 
M61.326305,29.081856 
	C58.983074,22.188299 58.966072,22.181543 47.090569,23.544731 
	C47.453838,24.834904 47.727840,26.118612 48.172424,27.340244 
	C54.431438,44.538857 60.675293,61.743164 67.004646,78.915932 
	C70.798729,89.209991 70.862846,89.189178 81.942261,88.777161 
	C82.203651,88.767433 82.455666,88.505745 82.992271,88.204018 
	C75.907898,68.747520 68.812431,49.260555 61.326305,29.081856 
M280.614532,51.820469 
	C278.370544,45.581814 276.123322,39.344322 273.883301,33.104240 
	C270.187622,22.809025 270.189484,22.805559 259.053558,23.219700 
	C258.790375,23.229488 258.536438,23.489786 257.737122,23.933798 
	C264.403717,42.090218 271.027740,60.347755 277.818481,78.543083 
	C281.845337,89.332932 281.963562,89.288811 293.916962,88.658951 
	C289.554291,76.545097 285.232574,64.544891 280.614532,51.820469 
M37.233120,46.710892 
	C31.618183,60.637138 26.003246,74.563385 20.295446,88.719955 
	C24.708157,88.719955 28.513321,88.719955 32.506256,88.719955 
	C37.016140,77.662971 41.522060,66.658775 45.968224,55.630489 
	C46.311470,54.779083 46.581814,53.633404 46.295517,52.836716 
	C44.629948,48.201977 42.787724,43.630722 40.731476,38.332729 
	C39.453983,41.472374 38.524887,43.755787 37.233120,46.710892 
M239.687302,68.050079 
	C236.925568,74.860153 234.163834,81.670227 231.250656,88.853729 
	C234.042984,88.853729 236.067444,88.630676 238.023804,88.900833 
	C241.924423,89.439468 243.902496,88.086609 245.245529,84.170067 
	C247.768372,76.813034 250.387161,69.353195 254.140259,62.587463 
	C259.044586,53.746437 255.198135,46.624241 251.553436,38.703857 
	C247.560471,48.541424 243.748642,57.932735 239.687302,68.050079 
M316.169128,84.345337 
	C316.169098,75.219109 316.200256,66.092659 316.136841,56.966869 
	C316.126862,55.530014 316.111023,53.814796 315.374939,52.709915 
	C312.301758,48.096806 308.952637,43.667507 305.231628,38.515873 
	C305.231628,55.826141 305.231628,72.225082 305.231628,88.838867 
	C308.104645,88.838867 310.594391,88.662445 313.048096,88.884583 
	C315.958710,89.148109 316.423370,87.624496 316.169128,84.345337 
z"/>
<path fill="#3C3C3C" opacity="1.000000" stroke="none" 
	d="
M348.604675,65.759560 
	C349.392487,65.092041 350.362457,64.131271 350.371399,63.161659 
	C350.477234,51.679890 350.439575,40.196800 350.439636,28.714054 
	C350.439636,27.093145 350.439636,25.472237 350.439636,23.648808 
	C354.312561,23.648808 357.743378,23.648808 361.520691,23.648808 
	C361.520691,45.255569 361.520691,66.778320 361.520691,88.413383 
	C355.775208,89.877975 351.701477,88.626518 347.970276,83.146843 
	C335.339203,64.596817 322.071838,46.480118 309.057983,28.190462 
	C308.121399,26.874151 307.268036,25.498600 305.905487,23.439608 
	C309.026520,23.439608 311.469574,23.652445 313.859619,23.387287 
	C317.055389,23.032747 318.995361,24.247410 320.834595,26.876913 
	C329.887512,39.819599 339.151154,52.614887 348.604675,65.759560 
z"/>
<path fill="#3F3F3F" opacity="1.000000" stroke="none" 
	d="
M108.073868,88.874153 
	C105.094551,88.874146 102.603668,88.874146 99.770554,88.874146 
	C99.770554,67.118668 99.770554,45.574398 99.770554,23.726357 
	C103.243958,23.726357 106.799301,23.726357 110.779648,23.726357 
	C110.779648,41.746193 110.779648,59.640511 110.779648,78.039375 
	C122.398468,78.039375 133.613617,78.039375 145.016327,78.039375 
	C145.016327,81.830482 145.016327,85.112595 145.016327,88.874161 
	C132.754761,88.874161 120.658524,88.874161 108.073868,88.874153 
z"/>
<path fill="#383838" opacity="1.000000" stroke="none" 
	d="
M169.949310,87.703049 
	C169.848068,66.129745 169.848068,45.024612 169.848068,23.693237 
	C173.713852,23.693237 177.140381,23.693237 180.975677,23.693237 
	C180.975677,41.827625 180.975677,59.733990 180.975677,78.102753 
	C192.599457,78.102753 203.827026,78.102753 215.292480,78.102753 
	C215.292480,81.818260 215.292480,85.069313 215.292480,88.171211 
	C200.100266,88.171211 185.075409,88.171211 169.949310,87.703049 
z"/>
<path fill="#383838" opacity="1.000000" stroke="none" 
	d="
M61.521637,29.427725 
	C68.812431,49.260555 75.907898,68.747520 82.992271,88.204018 
	C82.455666,88.505745 82.203651,88.767433 81.942261,88.777161 
	C70.862846,89.189178 70.798729,89.209991 67.004646,78.915932 
	C60.675293,61.743164 54.431438,44.538857 48.172424,27.340244 
	C47.727840,26.118612 47.453838,24.834904 47.090569,23.544731 
	C58.966072,22.181543 58.983074,22.188299 61.521637,29.427725 
z"/>
<path fill="#383838" opacity="1.000000" stroke="none" 
	d="
M280.762695,52.182579 
	C285.232574,64.544891 289.554291,76.545097 293.916962,88.658951 
	C281.963562,89.288811 281.845337,89.332932 277.818481,78.543083 
	C271.027740,60.347755 264.403717,42.090218 257.737122,23.933798 
	C258.536438,23.489786 258.790375,23.229488 259.053558,23.219700 
	C270.189484,22.805559 270.187622,22.809025 273.883301,33.104240 
	C276.123322,39.344322 278.370544,45.581814 280.762695,52.182579 
z"/>
<path fill="#383838" opacity="1.000000" stroke="none" 
	d="
M37.414452,46.375046 
	C38.524887,43.755787 39.453983,41.472374 40.731476,38.332729 
	C42.787724,43.630722 44.629948,48.201977 46.295517,52.836716 
	C46.581814,53.633404 46.311470,54.779083 45.968224,55.630489 
	C41.522060,66.658775 37.016140,77.662971 32.506256,88.719955 
	C28.513321,88.719955 24.708157,88.719955 20.295446,88.719955 
	C26.003246,74.563385 31.618183,60.637138 37.414452,46.375046 
z"/>
<path fill="#383838" opacity="1.000000" stroke="none" 
	d="
M239.812057,67.687065 
	C243.748642,57.932735 247.560471,48.541424 251.553436,38.703857 
	C255.198135,46.624241 259.044586,53.746437 254.140259,62.587463 
	C250.387161,69.353195 247.768372,76.813034 245.245529,84.170067 
	C243.902496,88.086609 241.924423,89.439468 238.023804,88.900833 
	C236.067444,88.630676 234.042984,88.853729 231.250656,88.853729 
	C234.163834,81.670227 236.925568,74.860153 239.812057,67.687065 
z"/>
<path fill="#343434" opacity="1.000000" stroke="none" 
	d="
M316.169006,84.825615 
	C316.423370,87.624496 315.958710,89.148109 313.048096,88.884583 
	C310.594391,88.662445 308.104645,88.838867 305.231628,88.838867 
	C305.231628,72.225082 305.231628,55.826141 305.231628,38.515873 
	C308.952637,43.667507 312.301758,48.096806 315.374939,52.709915 
	C316.111023,53.814796 316.126862,55.530014 316.136841,56.966869 
	C316.200256,66.092659 316.169098,75.219109 316.169006,84.825615 
z"/>
</svg>